<svg width="798" height="495" viewBox="0 0 798 495" fill="none" xmlns="http://www.w3.org/2000/svg">
<rect width="798" height="495" fill="#FDEE50"/>
<path fill-rule="evenodd" clip-rule="evenodd" d="M394.793 105.952C395.487 105.166 396.555 105.436 397.204 106.057C397.626 106.181 398.035 106.366 398.422 106.611C399.295 106.499 400.21 106.499 401.067 106.531C401.275 106.414 401.497 106.31 401.74 106.221C403.471 105.589 405.004 105.91 406.269 106.757C406.878 106.181 407.647 105.82 408.629 105.874C409.506 105.923 410.131 106.336 410.667 106.879C411.201 106.109 412.064 105.56 413.14 105.484C414.643 105.377 416.088 105.979 417.286 106.912C417.983 106.112 418.935 105.652 419.995 105.648C420.692 105.521 421.429 105.571 422.094 105.772C423.059 106.064 423.907 106.61 424.583 107.318C425.651 106.296 426.959 105.56 428.467 105.667C430.418 105.808 432.036 107.243 432.788 109.008C434.109 109.537 435.328 110.291 436.348 111.366C436.402 111.423 436.454 111.482 436.508 111.542C437.057 111.744 437.574 112.031 438.03 112.409C439.472 113.609 439.793 115.344 439.316 117.045C439.383 117.317 439.44 117.594 439.492 117.871C440.842 118.076 442.069 118.855 442.767 120.123C443.721 121.864 443.533 124.158 442.499 125.819C442.055 126.534 441.491 127.136 440.857 127.663C441.574 129.29 441.23 131.231 440.074 132.547C439.793 133 439.447 133.41 439.058 133.78C439.488 135.462 438.724 137.197 437.2 138.096L437.07 138.422C437.048 138.476 437.026 138.53 437.003 138.584C436.986 138.653 436.965 138.72 436.945 138.787C436.909 139.384 436.712 139.97 436.322 140.522C435.522 141.653 434.532 142.39 434.007 143.71L433.954 143.849C433.728 144.474 432.999 144.914 432.378 144.722C435.828 151.802 437.636 159.681 438.878 167.403C439.497 171.255 439.975 175.12 440.363 179L440.743 182.864C441.077 186.299 441.374 189.745 441.376 193.191C441.381 200.986 439.15 208.484 434.361 214.688C429.832 220.552 423.423 224.801 416.183 226.475C408.708 228.201 399.939 227.521 393.235 223.57C391.259 222.409 392.99 219.615 395.002 220.549C398.808 222.32 402.677 223.635 406.897 223.929C411.011 224.218 415.134 223.704 419.035 222.359C425.488 220.132 430.98 215.466 434.51 209.657C436.249 206.793 437.508 203.686 438.178 200.403C439.012 196.31 438.887 192.08 438.58 187.936L438.559 187.653C437.953 179.668 437.154 171.633 435.863 163.727C434.721 156.735 432.966 149.886 430.688 143.187C429.796 142.402 428.797 141.753 427.729 141.259C419.906 140.933 412.068 141.028 404.255 141.567C397.592 142.03 390.961 142.814 384.38 143.956L383.675 144.079C382.218 144.339 380.6 144.487 379.227 145.073C378.05 145.578 377.573 146.547 377.276 147.738C376.529 150.752 376.415 154.05 376.289 157.141C376.165 160.161 376.445 163.207 376.202 166.218C375.997 168.738 375.351 171.316 373.484 173.139C372.507 174.093 371.304 174.614 370.176 175.339C369.447 175.806 369.138 176.288 369.232 177.153C369.434 179.047 370.961 181.433 369.246 183.055C368.945 183.339 368.423 183.376 368.126 183.055C367.419 182.286 366.441 181.7 365.603 181.079C365.252 180.822 365.543 180.323 365.942 180.501C366.466 180.736 367 181.013 367.547 181.255C366.34 180.261 364.623 179.774 363.194 179.485C362.474 179.341 361.717 179.299 360.967 179.366C360.413 179.631 359.847 179.875 359.28 180.115C358.561 180.417 357.833 180.691 357.101 180.951C354.561 183.02 353.349 186.385 353.878 189.676C354.167 191.492 355.006 193.468 356.587 194.529C358.459 195.785 360.967 195.245 362.991 196.178C364.885 197.05 366.038 198.813 366.902 200.638L367.261 201.397C368.063 203.079 368.886 204.716 369.981 206.247C371.248 208.02 372.799 209.612 374.491 210.979C375.311 211.641 376.186 212.236 377.09 212.778L377.338 212.925C378.253 213.461 378.908 213.973 378.97 215.108C378.99 215.503 378.74 215.864 378.419 216.069C377.033 216.947 375.655 215.849 374.503 215.083C373.259 214.257 372.069 213.328 370.968 212.314C368.875 210.391 367.065 208.106 365.672 205.627C364.611 203.738 364.007 201.08 362.33 199.617C361.306 198.724 359.859 198.717 358.58 198.553C357.39 198.4 356.265 198.153 355.206 197.567C350.9 195.176 349.683 189.389 350.704 184.916C350.878 184.162 351.12 183.428 351.419 182.721C349.816 182.988 348.016 181.332 348.666 179.66C348.716 179.534 348.773 179.416 348.827 179.294C347.771 178.6 346.937 177.547 346.541 176.169C346.339 175.457 346.309 174.738 346.415 174.043C345.903 173.7 345.48 173.227 345.208 172.646C344.357 172.253 343.603 171.665 343.153 170.825C342.529 169.665 342.608 168.597 343.083 167.635C343.017 167.514 342.952 167.391 342.89 167.264C341.146 166.159 339.929 164.255 340.068 162.144C340.113 161.445 340.286 160.814 340.553 160.246C340.53 160.174 340.508 160.1 340.488 160.028C339.029 159.286 337.822 158.068 337.391 156.441C336.961 154.804 337.468 153.172 338.482 151.916C336.998 150.831 336.105 149.316 336.647 147.024C336.867 146.092 337.31 145.244 337.909 144.529C337.906 144.507 337.901 144.485 337.896 144.462L337.757 144.355C335.925 142.91 334.872 141.068 335.996 138.803C336.501 137.785 337.221 137.075 338.067 136.608L338.109 136.475C337.503 135.177 337.297 133.735 337.716 132.22C338.057 130.971 338.866 129.977 339.9 129.318C339.83 128.759 339.84 128.163 339.952 127.517C340.137 126.427 340.679 125.476 341.471 124.801C341.5 124.657 341.537 124.516 341.579 124.375C341.846 123.513 342.346 122.576 342.925 121.881C343.402 121.305 343.937 121.094 344.59 121.072C344.55 120.541 344.577 120.002 344.686 119.455C345.02 117.77 346.094 116.185 347.684 115.465C348.337 115.171 349.025 115.085 349.688 115.156C350.252 113.969 351.353 113.109 352.706 112.924C353.232 112.85 353.722 112.854 354.172 112.921C354.427 112.802 354.692 112.696 354.969 112.6C355.152 112.535 355.337 112.476 355.523 112.417C356.149 111.641 356.973 111.02 357.935 110.647C359.045 110.214 360.176 110.258 361.178 110.622L361.497 110.555C361.996 109.69 362.793 109.02 364.017 108.716C365.407 108.372 366.835 108.852 367.928 109.725C367.933 109.725 367.938 109.725 367.945 109.722C368.517 108.444 369.494 107.554 371.134 107.616C372.155 107.655 373.078 108.162 373.79 108.884C374.186 108.834 374.582 108.79 374.98 108.746C375.401 108.253 375.868 107.794 376.385 107.381C377.231 106.703 378.332 106.758 378.955 107.712C379.091 107.92 379.217 108.13 379.344 108.34L379.915 108.3C380.588 107.393 381.506 106.78 382.762 106.731C383.915 106.684 384.736 107.247 385.362 108.036C385.872 108.024 386.384 108.014 386.896 108.006C387.492 107.316 388.194 106.708 388.996 106.204C389.609 105.818 390.514 105.95 391.012 106.464C391.347 106.813 391.66 107.178 391.951 107.556C392.7 106.716 393.712 106.163 394.793 105.952ZM358.387 184.459C359.543 183.801 361.096 184.513 362.214 185.072C363.577 185.752 364.93 186.778 365.764 188.064C366.899 189.814 364.23 191.228 363.035 189.658C362.301 188.692 361.714 187.718 360.824 186.872C360.01 186.096 358.83 185.577 358.363 184.553C358.345 184.518 358.35 184.479 358.387 184.459ZM359.2 141.973L359.221 141.911C359.55 141.013 358.116 140.626 357.79 141.516C357.296 142.867 357.866 144.334 359.2 144.917C359.57 145.079 359.992 145.023 360.215 144.651C360.402 144.339 360.315 143.797 359.949 143.637C359.198 143.309 358.947 142.729 359.2 141.973ZM346.847 139.461C347.565 138.828 346.512 137.782 345.797 138.413C345.131 139 344.637 139.799 344.765 140.717C344.896 141.653 345.602 142.314 346.375 142.781C347.194 143.277 347.941 141.994 347.124 141.5L347.033 141.444C346.69 141.231 346.288 140.939 346.23 140.52C346.168 140.075 346.545 139.728 346.847 139.461ZM350.922 128.294L350.973 128.256C351.744 127.706 351.003 126.419 350.223 126.975C349.509 127.485 348.935 128.148 348.875 129.062C348.816 129.95 349.268 130.72 349.86 131.344C350.517 132.039 351.566 130.989 350.909 130.296C350.27 129.62 350.145 128.882 350.922 128.294Z" fill="black"/>
<path fill-rule="evenodd" clip-rule="evenodd" d="M421.301 201.098C421.472 201.052 421.624 201.282 421.481 201.408C420.899 201.924 420.529 202.887 420.104 203.543C419.7 204.167 419.31 204.784 418.955 205.437C418.556 206.169 418.172 206.899 417.861 207.673L417.8 207.829C417.893 208.05 417.966 208.268 418.019 208.411L418.035 208.452C418.564 209.804 417.452 211.307 416.198 211.685C414.052 212.332 412.211 210.571 412.16 208.476C412.12 206.829 413.237 205.361 414.373 204.272C415.366 203.319 416.478 202.508 417.722 201.914C418.271 201.653 418.841 201.433 419.437 201.306C420.046 201.177 420.704 201.259 421.301 201.098ZM417.258 207.068C417.415 207.143 417.549 207.324 417.662 207.535C417.606 207.356 417.489 207.178 417.258 207.068ZM418.6 184.177C420.468 185.312 423.314 187.958 421.305 190.771C418.939 193.252 415.534 190.408 413.856 189.121C412.3 188.124 410.551 190.688 411.995 191.852C424.121 200.825 429.043 184.474 419.545 182.843C418.499 182.663 418.111 183.826 418.6 184.177ZM403.245 173.28L403.575 173.253C405.007 173.127 406.456 172.934 407.868 173.258C409.765 173.693 409.625 176.451 407.868 176.958C406.319 177.405 404.603 177.211 403.004 177.227C402.752 177.229 402.501 177.236 402.25 177.24C402.2 177.837 402.004 178.353 401.704 178.867C401.489 179.237 401.214 179.587 400.944 179.916C400.302 180.695 398.787 180.678 398.139 179.916C397.66 179.351 397.278 178.702 397.272 177.939C397.27 177.743 397.294 177.535 397.341 177.331L396.468 177.347C394.332 177.379 392.18 177.365 390.083 177.025C389.337 177.18 388.726 175.834 389.756 175.432C392.555 174.337 395.683 174.015 398.653 173.687C400.18 173.518 401.715 173.401 403.245 173.28ZM427.094 172.15L427.17 172.142C429.022 171.952 431.064 171.624 432.92 171.813C435.692 172.095 435.687 175.839 432.92 176.119C431.905 176.222 430.835 176.172 429.768 176.074C430.313 177.23 429.666 178.612 428.352 178.788C427.13 178.952 425.865 177.766 426.265 176.494L426.284 176.437C426.362 176.217 426.432 175.97 426.516 175.726L426.074 175.689C424.753 175.572 422.919 175.334 422.433 174.291C422.286 173.977 422.32 173.686 422.546 173.417C423.472 172.315 425.755 172.279 427.094 172.15ZM407.395 163.576C408.735 163.09 410.129 164.229 410.303 165.513C410.503 166.992 409.435 167.966 408.082 168.143L408.014 168.151C405.027 168.48 402.062 169.081 399.071 169.421C397.713 169.575 396.344 169.677 394.977 169.713L393.999 169.735C392.802 169.765 391.517 169.793 390.411 169.38L390.416 169.373C390.122 169.288 389.987 168.865 390.314 168.633C391.491 167.801 393.078 167.487 394.448 167.092C395.826 166.694 397.214 166.327 398.606 165.983C401.528 165.26 404.563 164.604 407.395 163.576ZM419.76 163.922C420.115 162.05 422.768 161.85 423.742 163.212C424.372 163.428 425.296 163.653 425.868 163.823C426.865 164.118 427.862 164.412 428.862 164.696C430.932 165.286 432.953 166.033 434.988 166.729C435.198 166.801 435.14 167.067 434.939 167.094C432.098 167.463 429.304 167.635 426.446 167.517L425.86 167.49C423.342 167.392 419.066 167.58 419.76 163.922Z" fill="black"/>
<path fill-rule="evenodd" clip-rule="evenodd" d="M469.271 226.653C470.378 225.565 472.138 225.836 473.218 226.803C474.316 227.786 474.977 229.331 475.542 230.663C478.073 236.65 477.483 243.206 478.763 249.471C481.106 250.737 483.221 252.389 484.719 254.613C486.994 257.99 488.074 261.924 486.933 265.926C486.344 267.998 485.342 269.917 484.628 271.944C483.865 274.101 483.399 276.344 483.175 278.622C482.955 280.858 482.925 283.107 482.989 285.352C483.023 286.514 483.084 287.675 483.145 288.835C483.2 289.875 483.384 290.96 483.136 291.979L483.105 292.096C483.202 292.081 483.297 292.062 483.392 292.041C484.208 291.859 484.926 291.576 485.777 291.688C486.441 291.775 486.785 292.328 486.504 292.954C486.382 293.226 486.219 293.455 486.023 293.649C487.734 306.309 490.723 318.766 492.69 331.386C493.582 337.111 494.125 342.854 493.818 348.651L493.786 349.226C493.474 354.548 492.706 360.414 490.003 365.069C488.739 367.248 487.003 369.182 484.899 370.574C483.935 371.213 482.902 371.711 481.78 371.961C475.966 374.277 469.818 373.709 464.336 370.646C461.87 369.27 459.411 367.666 457.398 365.675C456.42 364.707 455.476 363.475 454.896 362.129C454.899 362.431 454.844 362.74 454.905 363.038L455.027 363.627C455.94 368.002 459.42 384.17 459.466 385.527C459.491 386.26 453.33 386.242 452.661 386.264L452.642 386.265C442.663 386.681 432.677 386.459 422.703 386.046L421.915 386.014C412.243 385.604 401.717 385.053 392.033 384.771L392.053 384.609C392.169 383.739 392.734 379.87 392.796 379.573L392.799 379.563C393.073 378.457 393.602 375.015 393.324 373.873C392.606 370.933 389.372 371.604 387.096 371.916L386.616 371.979C386.248 372.03 385.352 372.161 385.36 372.17C385.118 371.918 385.693 371.203 385.835 371.012L385.949 370.854C386.56 369.998 387.113 369.109 387.053 368.006C386.906 365.312 383.057 365.464 381.166 365.651C381.032 365.664 380.978 365.872 381.132 365.903L381.505 365.981C382.705 366.239 385.37 366.895 385.309 367.889C385.275 368.453 384.675 368.869 384.308 369.224C383.903 369.616 383.501 370.038 383.202 370.52C382.628 371.446 382.497 372.696 383.066 373.66C383.721 374.772 384.885 374.902 386.05 374.801L386.116 374.795C386.372 374.771 386.629 374.746 386.885 374.721L388.423 374.571C388.804 374.534 390.028 374.213 390.385 374.434C390.892 374.748 390.283 376.138 390.168 376.596L390.162 376.628C390.064 377.291 390.005 384.237 389.995 384.696C382.449 384.521 374.902 382.842 367.356 383.236C361.361 383.55 355.382 384.091 349.398 384.561L349.247 383.276C347.589 369.284 344.988 350.821 346.236 336.981C346.334 335.897 344.643 335.904 344.546 336.981C343.256 351.292 346.08 370.517 347.724 384.69C345.176 384.884 342.628 385.06 340.077 385.194L339.426 385.227C330.745 385.661 321.784 385.687 313.288 383.695C313.026 383.634 312.937 383.372 312.992 383.154C312.908 383.203 312.781 383.175 312.745 383.057C311.755 379.793 311.253 371.483 310.804 367.887L310.774 367.652C310.313 364.158 310.049 360.624 309.859 357.109C309.475 350.078 309.521 343.038 310.041 336.014C311.695 313.613 318.282 290.982 332.108 272.979C335.45 268.627 339.255 264.646 343.82 261.566C348.299 258.544 353.323 256.416 358.421 254.687C361.791 253.543 365.213 252.565 368.636 251.588C368.766 251.524 368.895 251.46 369.025 251.397L369.221 251.303C370.438 250.726 371.636 250.094 372.882 249.581L373.158 249.468C374.964 248.744 377.069 248.102 379.024 248.124C382.191 246.529 384.851 244.117 384.593 240.249C384.487 238.66 386.98 238.662 387.069 240.249C387.301 244.472 384.701 247.467 381.386 249.477L381.402 249.493L381.418 249.511C381.935 250.098 382.489 250.644 383.087 251.151C386.666 254.199 391.193 256.729 395.718 258.394C401.027 260.349 406.332 260.934 411.823 259.354C414.694 258.527 417.405 257.253 419.896 255.604C420.656 255.101 421.385 254.562 422.084 253.985C421.423 253.081 420.895 252.106 420.451 251.073C419.56 248.993 418.823 246.176 419.733 243.98C419.957 243.439 420.846 243.105 421.157 243.794C422.013 245.679 422.37 247.716 423.367 249.56C423.747 250.261 424.184 250.927 424.675 251.555C424.675 251.588 428.418 252.229 428.418 252.229C432.944 252.227 437.205 253.966 441.208 256.139C443.575 257.423 445.901 258.789 448.22 260.157L452.752 262.832C453.086 263.029 453.46 263.219 453.834 263.422C453.396 261.262 453.183 259.06 453.327 256.876C453.544 253.584 454.825 249.982 458.215 248.809C459.819 248.253 461.674 248.424 463.231 249.042C463.949 249.327 464.731 249.705 465.399 250.21C465.722 248.756 467.084 247.666 468.453 247.184C468.897 247.027 469.351 246.928 469.812 246.879C469.798 246.646 469.797 246.41 469.8 246.167L469.803 245.983C469.825 244.905 469.816 243.828 469.793 242.752C469.751 240.712 469.654 238.715 469.446 236.682C469.274 234.999 468.973 233.335 468.75 231.659L468.658 230.938C468.47 229.518 468.154 227.75 469.271 226.653ZM333.142 364.282L332.764 364.058C331.527 363.327 330.252 362.654 328.754 362.992C327.326 363.314 326.313 364.474 325.781 365.78C325.53 366.398 325.398 367.02 325.301 367.678C325.247 368.046 325.21 368.418 325.145 368.784L325.124 368.898C325.095 369.044 325.05 369.247 325.009 369.424C324.619 369.252 324.227 368.98 323.908 368.819L323.651 368.689C323.048 368.389 322.42 368.103 321.763 367.964C320.338 367.662 318.758 368.098 317.944 369.375C317.247 370.466 317.262 371.753 317.528 372.976L317.547 373.061C317.663 373.569 318.26 375.602 319.129 375.306C319.973 375.017 320.086 373.893 320.15 373.145L320.155 373.073C320.184 372.509 320.072 371.323 320.711 371.109C321.509 370.841 323.046 372.064 323.741 372.383C324.984 372.954 326.35 373.123 327.362 372.012C328.269 371.015 328.345 369.557 328.58 368.293L328.641 367.975C328.765 367.333 329.006 366.308 329.716 366.333C330.297 366.355 330.934 366.957 331.412 367.242C331.94 367.557 332.489 367.82 333.062 368.044C334.399 368.567 335.885 368.734 337.308 368.58C338.132 368.491 338.669 368.097 338.96 367.322C339.059 367.094 339.134 366.859 339.186 366.616C339.648 364.88 337.124 363.641 336.194 365.194C335.12 365.154 334.121 364.864 333.142 364.282ZM488.443 352.674C487.674 352.125 486.629 352.243 485.941 352.862L485.9 352.9C485.71 353.085 485.28 353.564 485.002 353.985L484.915 353.918C484.901 353.907 484.887 353.896 484.874 353.885L484.836 353.854C484.268 353.373 483.673 352.933 482.941 352.736C481.035 352.224 479.302 353.501 478.469 355.138C478.074 355.915 477.905 356.717 477.708 357.555L477.691 357.632C477.612 358.022 477.509 358.814 477.167 359.007C477.041 359.078 476.756 358.938 476.474 358.775C475.83 358.403 475.252 357.929 474.621 357.538C473.141 356.619 471.459 356.239 469.797 356.902C468.151 357.557 466.972 359.104 466.945 360.907C466.924 362.235 467.814 364.554 469.488 364.392C469.823 364.36 470.254 364.153 470.309 363.767C470.453 362.741 469.644 361.48 470.572 360.633C471.469 359.814 472.398 360.503 473.21 361.071L473.791 361.479C474.736 362.136 475.709 362.737 476.906 362.809C478.419 362.899 479.816 362.063 480.578 360.774C481.267 359.609 481.277 358.291 481.815 357.095C481.933 356.834 482.236 356.593 482.135 356.472C482.543 356.685 483.069 357.297 483.323 357.469C484.589 358.323 486.281 358.317 487.39 357.184C487.832 356.734 488.113 356.177 488.441 355.647C488.559 355.455 488.707 355.277 488.815 355.08C488.854 355.008 488.919 354.738 488.972 354.498L489.054 354.116L489.063 354.053C489.133 353.476 488.929 353.021 488.443 352.674ZM439.701 347.629C438.247 346.865 436.455 347.156 435.145 348.081C433.677 349.118 432.956 350.712 432.466 352.397C432.109 353.623 431.938 355.314 430.914 356.202C429.721 357.236 427.721 356.139 426.462 355.731C424.938 355.239 423.108 355.037 421.621 355.766C420.165 356.48 419.463 357.938 419.312 359.499C419.172 360.956 419.38 362.875 420.211 364.094C420.293 364.214 420.449 364.183 420.501 364.056C421.047 362.711 420.942 361.172 421.385 359.78C421.859 358.294 422.968 357.979 424.377 358.379C425.847 358.796 427.192 359.576 428.703 359.854C430.314 360.15 431.91 359.845 433.18 358.779C434.248 357.883 434.896 356.578 435.333 355.278C435.759 354.01 435.829 352.312 436.736 351.26C436.965 350.994 437.364 350.673 437.735 350.639C438.285 350.589 438.484 350.998 438.929 351.312C440.102 352.14 441.975 352.156 442.693 350.7C442.928 350.223 443.045 349.546 442.693 349.079C442.077 348.261 441.57 348.267 440.756 348.444C440.73 348.422 440.701 348.394 440.669 348.356L440.644 348.326C440.429 348.053 440.011 347.792 439.701 347.629ZM382.122 339.032C382.074 337.937 380.757 336.886 379.717 337.651C379.55 337.773 379.385 337.898 379.223 338.028L379.156 338.099C378.963 338.099 378.783 338.048 378.592 337.987L378.258 337.88C377.38 337.602 376.537 337.377 375.601 337.583C373.99 337.937 372.968 339.327 372.443 340.803C371.954 342.178 372.115 343.581 371.885 344.991C371.668 346.328 370.981 346.85 369.691 346.564L369.625 346.548C367.06 345.934 364.138 344.216 361.889 346.571C359.46 349.116 361.049 353.158 363.708 354.793C363.824 354.865 363.953 354.747 363.926 354.626C363.573 352.982 362.542 351.414 362.888 349.669C363.127 348.46 363.967 347.887 365.166 348.08C367.687 348.486 370.045 350.496 372.631 349.037C373.923 348.308 374.635 346.939 374.956 345.536C375.246 344.274 375.164 342.85 375.719 341.66C376.327 340.357 377.35 341.301 378.453 341.479C380.013 341.731 382.205 340.912 382.122 339.032ZM466.709 300.094C466.715 299.006 465.024 299.005 465.019 300.094C464.957 313.879 458.511 326.62 457.353 340.268C457.261 341.352 458.952 341.346 459.043 340.268C460.201 326.616 466.647 313.901 466.709 300.094ZM327.146 322.658C326.256 321.65 324.952 321.963 323.893 322.468C322.303 323.226 320.781 324.079 319.322 325.065C318.963 325.307 319.189 325.834 319.612 325.753C320.682 325.547 321.724 325.317 322.762 324.983C323.542 324.732 324.354 324.368 325.168 324.239C325.117 324.426 325.055 324.609 324.982 324.79C324.848 325.159 324.693 325.521 324.562 325.891C324.3 326.629 324.064 327.378 323.835 328.127L323.721 328.502C323.246 330.073 322.784 332.359 324.978 332.842C325.793 333.022 326.6 332.667 327.357 332.388L327.513 332.331L330.276 331.352C330.605 331.235 331.215 331.154 331.488 330.949L331.444 331.159C331.388 331.437 331.332 331.71 331.212 331.988L331.146 332.141C330.459 333.698 329.594 335.255 330.394 336.976C331.08 338.45 332.701 339.149 334.263 338.731C335.748 338.333 336.822 336.661 336.054 335.206C335.767 334.664 334.929 334.399 334.397 334.737L334.254 334.832C334.086 334.942 333.797 335.13 333.79 335.165C333.751 335.175 333.709 335.185 333.667 335.196C333.756 334.932 333.817 334.527 333.895 334.347L334.184 333.69C334.722 332.456 335.189 331.2 334.778 329.816C333.603 325.852 329.617 328.105 326.677 329.237C326.72 329.069 326.763 328.904 326.799 328.742C326.925 328.168 327.064 327.597 327.201 327.026L327.482 325.846C327.736 324.76 327.933 323.55 327.146 322.658ZM477.566 318.234C477.568 318.14 477.453 318.068 477.372 318.123C475.492 319.387 474.235 322.026 474.941 324.275C475.284 325.366 476.013 326.324 477.037 326.854C478.31 327.513 479.716 327.262 481.053 326.98L481.621 326.859C482.021 326.774 482.416 326.713 482.824 326.825C482.964 326.864 483.126 326.986 483.259 327.012C483.204 327.105 483.146 327.267 483.116 327.327L483.019 327.522C482.922 327.72 482.827 327.926 482.768 328.133C482.568 328.83 482.617 329.578 482.941 330.227C483.544 331.438 484.808 332.12 486.125 332.236C486.909 332.306 488.886 331.619 489.353 332.451C490.281 334.104 492.922 332.992 492.408 331.163C492.061 329.926 491.077 329.126 489.856 328.792C489.206 328.614 488.533 328.638 487.872 328.711C487.613 328.739 487.355 328.779 487.096 328.807L486.901 328.825C486.952 328.821 486.364 328.807 486.128 328.791L486.178 328.655C486.186 328.636 486.193 328.619 486.199 328.607C486.461 328.044 486.656 327.484 486.64 326.856C486.611 325.722 485.878 324.734 484.915 324.188C484.027 323.685 482.97 323.484 481.96 323.597C480.851 323.72 479.274 324.599 478.183 324.136C477.361 323.787 477.081 322.569 477.069 321.771C477.05 320.57 477.532 319.431 477.566 318.234ZM401.007 310.352C397.983 308.994 395.386 311.313 393.611 313.532C393.52 313.646 393.635 313.839 393.779 313.75L394.015 313.603C395.464 312.694 397.07 311.62 398.866 311.929C400.492 312.21 400.894 313.274 400.571 314.724L400.476 315.132C400.132 316.625 399.868 318.17 400.724 319.559C401.533 320.87 403.11 321.443 404.588 321.478C406.292 321.519 407.763 320.726 409.321 320.173L409.445 320.13C410.106 319.901 412.52 319.304 412.554 320.664C412.569 321.286 411.904 322.016 411.648 322.575C411.313 323.306 411.09 324.074 411.094 324.886C411.104 326.911 412.793 328.556 414.792 327.574C415.568 327.192 415.769 326.096 415.363 325.392C414.793 324.399 414.562 324.451 414.962 323.408L415.077 323.115C415.569 321.859 415.961 320.566 415.408 319.248C414.304 316.615 410.993 316.296 408.628 317.168L408.542 317.201C407.07 317.771 402.661 320.057 402.965 316.824C403.084 315.551 403.47 314.33 403.201 313.043C402.949 311.847 402.116 310.85 401.007 310.352ZM386.435 299.539C385.883 298.567 384.03 298.915 384.183 300.149L384.233 300.533C384.295 301.059 384.309 301.553 383.946 302.021C383.505 302.589 382.751 302.76 382.066 302.674C380.616 302.49 379.692 301.145 378.096 301.459C376.801 301.714 375.907 302.774 375.389 303.93C374.841 305.154 374.853 306.481 374.444 307.742C373.974 309.192 372.971 309.125 371.719 308.618L371.449 308.507C370.251 308.008 369.049 307.455 367.714 307.693C365.497 308.089 363.587 311.499 365.665 313.146C366.04 313.443 366.695 313.288 366.679 312.726L366.677 312.619C366.666 311.596 366.924 310.276 368.096 310.035C369.339 309.779 370.744 310.914 371.898 311.241C374.887 312.086 376.59 309.836 377.098 307.174L377.116 307.072C377.278 306.14 377.406 304.416 378.38 303.98C378.9 303.747 379.454 304.32 379.888 304.55C380.563 304.908 381.287 305.136 382.05 305.194C384.873 305.409 388.08 302.439 386.435 299.539ZM457.078 295.863C456.147 295.459 454.76 295.684 454.533 296.898L454.395 297.662C454.125 299.138 453.694 300.984 452.244 301.516C451.337 301.848 450.295 301.265 449.482 300.91C448.504 300.483 447.552 300.117 446.482 300.015C444.311 299.809 442.693 301.066 441.925 303.03L441.858 303.205C441.239 304.855 440.402 308.011 441.758 309.35C441.956 309.545 442.355 309.64 442.598 309.458C443.399 308.857 443.602 307.868 443.877 306.941L443.901 306.862C444.193 305.899 444.432 304.839 444.959 303.972C445.939 302.36 448.496 304.201 449.726 304.626C451.745 305.324 453.839 304.916 455.383 303.423C456.357 302.479 456.934 301.285 457.33 300.022C457.583 300.153 457.846 300.266 458.129 300.342C459.206 300.634 460.484 300.48 461.305 299.664C462.844 298.131 462.009 295.382 459.662 295.827C459.199 295.914 458.896 296.356 458.841 296.807L458.81 296.878C458.219 296.683 457.573 296.077 457.078 295.863ZM348.292 282.17C346.099 279.913 342.293 281.137 340.792 283.531C340.481 284.028 340.995 284.657 341.541 284.506C342.847 284.146 344.69 282.729 346.07 283.631C347.093 284.3 346.537 286.047 346.443 287.024L346.429 287.17C346.311 288.501 346.284 290.321 347.32 291.317C347.916 291.891 348.831 291.813 349.617 291.731L349.867 291.705C350.794 291.612 351.715 291.449 352.603 291.163C353.42 290.901 354.193 290.545 354.96 290.168L355.152 290.073C355.491 289.905 356.623 289.237 356.963 289.656C357.139 289.875 356.701 290.834 356.61 291.048C356.266 291.853 355.829 292.61 355.513 293.429C354.958 294.871 354.911 296.499 355.692 297.875C356.448 299.209 358.087 300.29 359.539 299.265C360.371 298.678 360.369 297.611 359.539 297.024C359.101 296.713 358.658 296.509 358.477 295.987C358.24 295.308 358.545 294.587 358.84 293.958L359.192 293.21C359.974 291.538 360.755 289.616 359.663 287.908C358.535 286.145 356.243 286.117 354.509 286.851C353.52 287.271 352.617 287.833 351.586 288.157C350.872 288.382 350.156 288.532 349.425 288.614C349.262 287.735 349.493 286.75 349.495 285.876C349.499 284.549 349.252 283.158 348.292 282.17ZM461.397 250.768C457.696 250.225 455.904 253.537 455.649 256.726C455.418 259.622 455.887 262.526 456.621 265.341C456.895 266.385 457.204 267.416 457.527 268.431C458.047 270.061 458.611 271.688 459.297 273.256C459.506 273.729 459.718 274.205 459.954 274.661C460.765 275.326 461.458 276.222 462.089 277.082L462.503 277.651L462.614 277.804C463.685 279.271 464.6 280.793 465.348 282.448C466.06 284.024 466.591 285.667 467.003 287.344L467.104 287.763C467.421 289.054 467.888 290.595 467.323 291.796C468.433 292.138 469.535 292.449 470.714 292.614C472.341 292.842 474.033 292.857 475.675 292.797C477.261 292.739 478.845 292.616 480.424 292.447L481.562 292.322C481.68 292.308 481.798 292.295 481.916 292.28C481.871 292.225 481.833 292.163 481.806 292.096C481.4 291.124 481.453 289.996 481.408 288.95L481.402 288.835C481.343 287.675 481.307 286.514 481.292 285.352C481.265 283.17 481.324 280.983 481.563 278.812C481.77 276.913 482.093 275.012 482.598 273.167C483.107 271.297 483.885 269.54 484.603 267.744C485.313 265.969 485.898 264.145 485.835 262.209C485.795 260.979 485.524 259.782 485.066 258.652C485.044 258.669 485.017 258.681 484.985 258.679C483.547 258.626 482.184 258.21 480.794 257.859C479.319 257.485 477.809 257.179 476.3 256.997L475.98 256.959C474.722 256.818 473.353 256.749 472.191 257.289C470.934 257.874 470.142 259.176 469.664 260.425L469.611 260.569C468.763 262.937 468.957 266.097 471.58 267.218C472.394 267.566 474.251 267.78 474.669 266.677C474.857 266.174 474.471 265.43 474.325 264.954C474.154 264.388 474.042 263.83 474.054 263.238C474.065 262.719 474.461 262.327 474.965 262.286L475.011 262.283C475.928 262.243 477.819 261.186 478.003 262.708C478.039 263.003 477.813 263.314 477.574 263.458C477.092 263.743 476.59 263.934 476.066 264.05C476.137 264.367 476.239 264.677 476.338 264.986C476.397 264.956 476.463 264.937 476.533 264.931C477.308 264.868 478.075 264.99 478.85 264.999L479.274 265.002C479.876 265.007 480.4 265.04 480.984 265.352C481.523 265.639 481.428 266.36 480.984 266.668C479.82 267.476 477.849 267.002 476.636 266.182C476.689 266.598 476.664 267.023 476.486 267.469C475.962 268.793 474.46 269.452 473.117 269.509C471.923 269.559 470.782 269.183 469.829 268.524C469.635 269.219 469.322 269.887 469.187 270.608C469.009 271.555 469.221 272.662 468.891 273.552C468.561 274.448 467.287 275.048 466.55 274.169C465.471 272.884 465.806 270.849 466.755 269.547C467.26 268.858 468.177 268.067 469.111 267.943C468.462 267.332 467.942 266.577 467.615 265.745C467.592 265.755 467.564 265.757 467.535 265.749C464.499 264.918 462.847 262.166 462.745 259.277C462.521 259.438 462.289 259.582 462.046 259.711C461.465 260.024 460.719 259.749 460.54 259.1C460.375 258.495 460.854 257.749 461.528 257.8C461.913 257.832 462.299 257.834 462.682 257.77C462.735 257.762 462.785 257.752 462.838 257.741C462.872 257.519 462.916 257.297 462.971 257.077C461.824 257.208 460.624 257.02 459.515 256.775C458.56 256.566 458.782 255.046 459.743 255.082L459.898 255.089C461.159 255.149 463.021 255.353 464.102 254.554C464.292 254.279 464.503 254.019 464.731 253.774C464.761 253.712 464.786 253.647 464.809 253.579C465.39 251.905 462.637 250.95 461.397 250.768ZM428.171 274.317C426.73 273.931 425.213 274.457 424.222 275.545C423.389 276.46 422.958 277.583 422.572 278.732L422.352 279.393C422.032 280.328 421.664 281.07 420.519 280.714C419.052 280.257 417.78 279.46 416.184 279.523C414.733 279.58 413.314 280.204 412.304 281.251C411.271 282.321 410.778 283.812 410.997 285.281L411.011 285.37C411.126 286.047 412.115 288.463 413.164 287.351C413.632 286.855 413.539 286.306 413.651 285.676C413.756 285.076 413.982 284.487 414.353 284C415.009 283.138 416.065 282.801 417.098 283.106C418.46 283.509 419.662 284.339 421.13 284.358C422.673 284.379 423.983 283.579 424.834 282.322C425.522 281.307 425.767 280.119 426.25 279.016L426.297 278.911C426.703 278.003 426.98 277.675 427.91 278.109L428.235 278.265C429.627 278.927 431.193 279.533 432.633 278.6C433.97 277.733 434.541 275.991 433.416 274.723C432.795 274.023 431.358 274.142 430.955 275.04C430.884 275.195 430.818 275.351 430.754 275.508C430.63 275.471 430.511 275.425 430.397 275.361C429.642 275.021 428.987 274.535 428.171 274.317ZM386.103 264.062C384.459 263.176 383.087 264.919 383.35 266.493L383.362 266.562C383.372 266.609 383.394 266.713 383.422 266.832C383.338 266.821 383.255 266.807 383.172 266.785L382.79 266.739C382.19 266.669 381.608 266.633 381.007 266.825C379.589 267.281 378.892 268.66 378.857 270.073C378.823 271.481 379.552 272.617 379.766 273.963C379.985 275.339 378.561 274.946 377.632 274.845L377.595 274.842C376.302 274.711 374.943 274.708 373.868 275.551C372.759 276.422 372.267 277.926 372.424 279.304C372.565 280.548 373.343 282.462 374.753 282.659C374.892 282.678 375.051 282.648 375.122 282.509C375.692 281.4 374.899 280.176 374.989 279.006C375.087 277.719 375.907 277.505 377.038 277.588C378.135 277.669 379.229 277.902 380.313 277.575C381.488 277.219 382.341 276.21 382.582 275.02C382.848 273.708 382.36 272.487 382.043 271.241C381.937 270.827 381.885 270.41 381.958 269.987C381.974 269.895 382.053 269.811 382.082 269.775C382.262 269.741 382.532 269.827 382.687 269.844L382.906 269.865C384.096 269.973 385.243 269.901 386.094 268.917C386.53 268.413 386.691 267.796 386.647 267.146L386.625 266.883C386.602 266.631 386.558 266.297 386.426 266.158L386.425 266.151C386.469 266.092 386.51 266.031 386.549 265.968L386.586 265.905C386.951 265.297 386.739 264.405 386.103 264.062ZM470.317 248.636C468.68 248.636 467.133 249.171 465.895 250.627C466.336 251.047 466.689 251.536 466.884 252.108C467.49 251.777 468.132 251.517 468.789 251.333C470.794 250.773 473.536 250.781 475.222 252.157C476.105 252.876 475.136 254.165 474.185 253.943C473.334 253.744 472.594 253.376 471.7 253.334C470.925 253.296 470.165 253.398 469.421 253.622C468.286 253.964 467.255 254.613 466.497 255.507C466.243 255.807 466.022 256.132 465.836 256.484C464.42 259.172 465.487 263.027 467.441 265.24C466.674 262.691 467.439 259.685 468.967 257.574C470.806 255.032 473.556 254.744 476.454 255.141L476.549 255.154C479.353 255.549 482.824 256.24 484.92 258.301C484.71 257.825 484.47 257.365 484.199 256.919C482.61 254.302 479.976 252.261 477.242 250.804C476.784 250.557 476.321 250.329 475.86 250.117C474.109 249.312 472.157 248.636 470.317 248.636ZM471.213 228.667L471.206 228.697C471.205 228.703 471.203 228.708 471.202 228.714C471.105 229.573 471.334 230.56 471.45 231.427L471.466 231.55C471.711 233.524 472.034 235.5 472.14 237.489C472.243 239.402 472.203 241.386 471.974 243.29L471.939 243.561C471.804 244.599 471.724 245.816 471.373 246.882C472.721 247.011 474.069 247.444 475.294 247.905C475.734 248.072 476.171 248.247 476.606 248.433C476.061 245.535 475.77 242.595 475.178 239.706L475.062 239.131C474.419 235.935 473.815 232.719 472.153 229.86C471.931 229.479 471.692 229.16 471.422 228.82C471.363 228.742 471.293 228.691 471.213 228.667Z" fill="black"/>
<path fill-rule="evenodd" clip-rule="evenodd" d="M423.838 211.852C421.535 209.801 418.952 205.677 415.643 208.94C414.825 209.862 414.493 211.929 413.241 212.334C411.579 212.873 409.932 211.115 409.365 209.766C407.048 202.265 416.629 200.208 422.087 201.42C424.754 202.514 426.718 206.92 426.836 209.219C426.913 210.764 425.604 213.036 423.838 211.852ZM441.218 200.292C441.195 200.192 441.164 200.102 441.126 200.02C440.107 199.636 439.301 200.028 438.803 200.761C438.819 200.944 438.874 201.128 438.908 201.309C438.524 202.118 438.177 203.12 437.656 203.819C437.553 203.827 437.446 203.816 437.344 203.787C428.708 204.688 432.924 195.657 424.165 193.414C417.394 192.298 405.156 193.576 401.962 200.62C399.443 211.871 386.634 204.032 382.428 198.18C377.941 192.855 375.039 186.348 372.242 180.034C371.65 178.698 369.806 179.653 370.006 180.935C367.42 186.12 367.506 192.348 366.866 198.028C365.776 209.359 364.715 225.251 375.249 232.17C388.974 247.675 423.248 253.147 439.079 238.9C444.559 227.125 443.883 212.759 441.218 200.292Z" fill="black"/>
</svg>
